# Blender v2.58 (sub 0) OBJ File: 'airplane.blend'
# www.blender.org
mtllib plane.mtl
o LWing.001_LWing
v 1.345961 4.516132 -0.110675
v 1.346140 0.629458 -0.110427
v 1.345961 4.516129 -0.157312
v 1.346140 0.629451 -0.221842
v 1.345961 4.516125 -0.222090
v 1.326868 0.629460 -0.067959
v 1.326689 4.516133 -0.068207
v 1.282948 0.629459 -0.052272
v 1.282770 4.516132 -0.052521
v 1.236312 0.629456 -0.052272
v 1.236169 3.742111 -0.052471
v 1.236133 4.516130 -0.052521
v 1.236135 4.479356 -0.052518
v 1.236136 4.442582 -0.052516
v 1.236138 4.405808 -0.052514
v 1.236140 4.369034 -0.052511
v 1.236146 4.233134 -0.052503
v 1.236152 4.097234 -0.052494
v 1.236160 3.919673 -0.052483
v -0.201899 0.629384 -0.157064
v -0.202042 3.742038 -0.157263
v 0.590595 4.097201 -0.104890
v -0.054961 4.097168 -0.157286
v -0.128502 3.919604 -0.157274
v 0.471654 4.368993 -0.131105
v 0.216825 4.368980 -0.157303
v 0.148879 4.301027 -0.157299
v 0.947342 4.233119 -0.078701
v 0.981311 4.369020 -0.078709
v 0.692511 4.301055 -0.104903
v 0.726483 4.369007 -0.104907
v 0.080932 4.233075 -0.157294
v 0.658539 4.233104 -0.104899
v 0.571942 4.516089 -0.222090
v 0.571942 4.516093 -0.157312
v 0.737989 4.516102 -0.131114
v 0.904037 4.516112 -0.104917
v 1.070085 4.516121 -0.078719
v 0.770871 4.405783 -0.104910
v 0.815260 4.442559 -0.104912
v 0.604822 4.442548 -0.131110
v 0.859649 4.479335 -0.104914
v 1.047892 4.479346 -0.078716
v 1.025698 4.442571 -0.078714
v 0.394383 4.442536 -0.157308
v -0.201899 0.629379 -0.221842
v -0.202042 3.742034 -0.222041
v -0.054961 4.097164 -0.222064
v 0.216825 4.368976 -0.222081
vt 0.565625 0.075625
vt 0.972656 0.964844
vt 0.978125 0.056250
vt 0.568125 0.033125
vt 0.978125 0.059375
vt 0.984482 0.038071
vt 0.962500 0.087500
vt 0.854688 0.110938
vt 0.600000 0.975000
vt 0.953125 0.081250
vt 0.959375 0.071875
vt 0.946875 0.059375
vt 0.915625 0.078125
vt 0.968750 0.059375
vt 0.971875 0.043750
vn 1.000000 0.000046 0.000003
vn 1.000000 0.000046 0.000001
vn 1.000000 0.000046 -0.000000
vn 0.910620 0.000068 0.413245
vn 0.336354 0.000076 0.941736
vn -0.000000 0.000064 1.000000
vn -0.072670 0.000060 0.997356
vn -0.080854 0.033550 0.996161
vn -0.080898 0.000060 0.996722
vn -0.076555 0.015915 0.996938
vn -0.076564 0.000060 0.997065
vn -0.072638 0.030147 0.996903
vn -0.101741 0.101795 0.989589
vn -0.095910 0.024036 0.995100
vn -0.102136 0.051126 0.993456
vn -0.080638 0.080694 0.993472
vn -0.090251 0.045184 0.994894
vn -0.089979 0.090034 0.991866
vn -0.090341 0.000060 0.995911
vn -0.090341 0.000059 0.995911
vn -0.102235 0.025617 0.994430
vn -0.095692 0.071826 0.992816
vn -0.095829 0.047972 0.994241
vn -0.080882 0.020280 0.996517
vn -0.000046 1.000000 -0.000059
vn -0.000046 1.000000 -0.000066
vn -0.000046 1.000000 -0.000057
vn -0.000046 1.000000 -0.000071
vn -0.000045 1.000000 -0.000061
vn -0.000040 1.000000 -0.000052
vn -0.000058 1.000000 -0.000072
vn -0.000041 1.000000 -0.000061
vn -0.000047 1.000000 -0.000067
vn -0.122194 0.147551 0.981477
vn -0.153168 0.184932 0.970742
vn -0.155164 0.093703 0.983435
vn -0.135980 0.164188 0.977012
vn -0.137371 0.082966 0.987039
vn -0.118399 0.285863 0.950928
vn -0.100566 0.182133 0.978118
vn -0.109688 0.198647 0.973914
vn -0.101502 0.122574 0.987255
vn -0.155845 0.000056 0.987781
vn -0.137372 0.082966 0.987039
vn -0.137842 0.000057 0.990454
vn -0.123200 0.074414 0.989588
vn -0.123539 0.000058 0.992340
vn -0.145879 0.352193 0.924489
vn -0.120569 0.218347 0.968394
vn -0.133751 0.242211 0.960960
vn -0.122194 0.147550 0.981477
vn -0.111656 0.067447 0.991455
vn -0.111656 0.067445 0.991455
vn -0.102267 0.000059 0.994757
vn 0.000046 -1.000000 0.000063
vn 0.000046 -1.000000 0.000064
vn 0.000045 -1.000000 0.000064
vn -1.000000 -0.000046 -0.000000
vn -0.923897 0.382641 -0.000026
vn -0.923897 0.382641 -0.000025
vn -0.923897 0.382641 -0.000024
vn -0.707139 0.707074 -0.000047
vn -0.707140 0.707073 -0.000052
vn -0.707137 0.707076 -0.000041
vn -0.707138 0.707076 -0.000042
vn -0.382727 0.923861 -0.000061
vn -0.382725 0.923862 -0.000055
vn -0.382726 0.923862 -0.000054
vn 0.000000 -0.000064 -1.000000
usemtl None_MM_ARMYCAMO.bmp
s off
f 1/1/1 2/2/1 3/3/1
f 3/4/2 2/2/2 4/5/2
f 3/4/3 4/2/3 5/6/3
f 2/4/4 1/2/4 6/7/4
f 6/4/4 1/2/4 7/8/4
f 6/4/5 7/2/5 8/9/5
f 8/4/5 7/2/5 9/9/5
f 10/4/6 8/2/6 11/9/6
f 11/4/6 8/2/6 9/9/6
f 12/4/6 13/2/6 9/9/6
f 9/4/6 13/2/6 14/9/6
f 14/4/6 15/2/6 9/9/6
f 9/4/6 15/2/6 16/9/6
f 9/4/6 16/2/6 17/9/6
f 17/4/6 18/2/6 9/9/6
f 9/4/6 18/2/6 19/9/6
f 9/4/6 19/2/6 11/9/6
f 10/4/7 11/2/7 20/9/7
f 20/4/7 11/2/7 21/9/7
f 22/4/8 23/2/8 24/9/8
f 18/4/9 22/2/9 19/9/9
f 19/4/10 22/2/10 24/9/10
f 19/4/11 24/2/11 11/9/11
f 11/4/12 24/2/12 21/9/12
f 25/4/13 26/2/13 27/9/13
f 28/4/14 29/2/14 30/9/14
f 30/4/15 29/2/15 31/9/15
f 30/4/15 31/2/15 25/9/15
f 23/4/16 22/2/16 32/9/16
f 32/4/17 22/2/17 33/9/17
f 32/4/18 33/2/18 27/9/18
f 18/4/19 17/2/19 28/9/19
f 28/4/20 17/2/20 16/9/20
f 28/4/21 16/2/21 29/9/21
f 25/4/22 27/2/22 30/9/22
f 30/4/23 27/2/23 33/9/23
f 30/4/17 33/2/17 28/9/17
f 28/4/17 33/2/17 22/9/17
f 28/4/24 22/2/24 18/9/24
f 5/4/25 34/2/25 3/3/25
f 3/4/26 34/2/26 35/9/26
f 35/4/27 36/2/27 3/3/27
f 3/4/28 36/2/28 37/9/28
f 3/4/29 37/2/29 38/9/29
f 7/4/30 1/2/30 9/9/30
f 9/4/31 1/2/31 3/3/31
f 9/4/32 3/2/32 12/9/32
f 12/4/33 3/2/33 38/9/33
f 39/4/34 40/2/34 41/9/34
f 42/4/35 37/2/35 36/9/35
f 38/4/36 37/2/36 43/9/36
f 43/4/37 37/2/37 42/9/37
f 43/4/38 42/2/38 44/9/38
f 45/4/39 26/2/39 41/9/39
f 41/4/40 26/2/40 25/9/40
f 41/4/41 25/2/41 39/9/41
f 39/4/42 25/2/42 31/9/42
f 39/4/42 31/2/42 29/9/42
f 12/4/43 38/2/43 13/9/43
f 13/4/44 38/2/44 43/9/44
f 13/4/45 43/2/45 14/9/45
f 14/4/46 43/2/46 44/9/46
f 14/4/47 44/2/47 15/9/47
f 35/4/48 45/2/48 36/9/48
f 36/4/49 45/2/49 41/9/49
f 36/4/50 41/2/50 42/9/50
f 42/4/34 41/2/34 40/9/34
f 42/4/34 40/2/34 44/9/34
f 44/4/51 40/2/51 39/9/51
f 44/4/52 39/2/52 15/9/52
f 15/4/53 39/2/53 29/9/53
f 15/4/54 29/2/54 16/9/54
f 20/4/55 46/2/55 10/9/55
f 10/4/56 46/2/56 4/5/56
f 10/4/56 4/2/56 8/9/56
f 8/4/57 4/2/57 2/9/57
f 8/4/56 2/2/56 6/7/56
f 47/4/58 46/2/58 21/9/58
f 21/4/58 46/2/58 20/9/58
f 23/4/59 48/2/59 24/9/59
f 24/4/60 48/2/60 47/10/60
f 24/4/61 47/2/61 21/9/61
f 49/4/62 48/2/62 23/9/62
f 23/4/63 32/2/63 49/11/63
f 49/4/64 32/2/64 27/9/64
f 49/4/65 27/2/65 26/12/65
f 35/4/66 34/2/66 45/13/66
f 45/4/67 34/2/67 49/11/67
f 45/4/68 49/2/68 26/12/68
f 4/4/69 46/2/69 5/6/69
f 5/4/69 46/2/69 47/10/69
f 5/4/69 47/2/69 34/14/69
f 34/4/69 47/2/69 48/15/69
f 34/4/69 48/2/69 49/11/69
o LWing
v 1.420270 -4.558843 -0.111733
v 1.420677 -0.672168 -0.111733
v 1.420270 -4.558843 -0.065097
v 1.420677 -0.672168 -0.000319
v 1.420270 -4.558843 -0.000319
v 1.401405 -0.672166 -0.154202
v 1.400998 -4.558840 -0.154202
v 1.357485 -0.672162 -0.169888
v 1.357079 -4.558836 -0.169888
v 1.310849 -0.672157 -0.169888
v 1.310523 -3.784812 -0.169888
v 1.310442 -4.558831 -0.169888
v 1.310446 -4.522057 -0.169888
v 1.310450 -4.485282 -0.169888
v 1.310454 -4.448508 -0.169888
v 1.310457 -4.411734 -0.169888
v 1.310472 -4.275835 -0.169888
v 1.310486 -4.139935 -0.169888
v 1.310504 -3.962373 -0.169888
v -0.127362 -0.672006 -0.065097
v -0.127687 -3.784662 -0.065097
v 0.664929 -4.139867 -0.117492
v 0.019372 -4.139800 -0.065097
v -0.054158 -3.962231 -0.065097
v 0.545972 -4.411654 -0.091295
v 0.291143 -4.411627 -0.065097
v 0.223200 -4.343671 -0.065097
v 1.021668 -4.275805 -0.143690
v 1.055629 -4.411707 -0.143690
v 0.766832 -4.343728 -0.117492
v 0.800800 -4.411681 -0.117492
v 0.155258 -4.275714 -0.065097
v 0.732864 -4.275774 -0.117492
v 0.646251 -4.558762 -0.000319
v 0.646251 -4.558762 -0.065097
v 0.812298 -4.558779 -0.091295
v 0.978346 -4.558796 -0.117492
v 1.144394 -4.558814 -0.143690
v 0.845187 -4.448460 -0.117492
v 0.889573 -4.485239 -0.117492
v 0.679135 -4.485217 -0.091295
v 0.933960 -4.522017 -0.117492
v 1.122203 -4.522037 -0.143690
v 1.100011 -4.485260 -0.143690
v 0.468697 -4.485195 -0.065097
v -0.127362 -0.672006 -0.000319
v -0.127687 -3.784662 -0.000319
v 0.019372 -4.139800 -0.000319
v 0.291143 -4.411627 -0.000319
vt 0.565625 0.075625
vt 0.972656 0.964844
vt 0.978125 0.056250
vt 0.568125 0.033125
vt 0.978125 0.059375
vt 0.984482 0.038071
vt 0.962500 0.087500
vt 0.854688 0.110938
vt 0.600000 0.975000
vt 0.953125 0.081250
vt 0.959375 0.071875
vt 0.946875 0.059375
vt 0.915625 0.078125
vt 0.968750 0.059375
vt 0.971875 0.043750
vn 1.000000 -0.000105 0.000000
vn 0.910620 -0.000095 -0.413245
vn 0.336354 -0.000035 -0.941736
vn 0.000000 0.000000 -1.000000
vn -0.072670 0.000008 -0.997356
vn -0.080856 -0.033482 -0.996163
vn -0.080898 0.000008 -0.996722
vn -0.076556 -0.015847 -0.996939
vn -0.076564 0.000008 -0.997065
vn -0.072640 -0.030080 -0.996905
vn -0.101747 -0.101726 -0.989596
vn -0.095911 -0.023967 -0.995101
vn -0.102139 -0.051056 -0.993459
vn -0.080642 -0.080626 -0.993477
vn -0.090253 -0.045115 -0.994896
vn -0.089984 -0.089965 -0.991872
vn -0.090341 0.000009 -0.995911
vn -0.102236 -0.025548 -0.994432
vn -0.095696 -0.071757 -0.992821
vn -0.095831 -0.047903 -0.994244
vn -0.080883 -0.020212 -0.996519
vn -0.000105 -1.000000 0.000000
vn -0.000105 -1.000000 -0.000009
vn -0.000105 -1.000000 0.000006
vn -0.000104 -1.000000 -0.000005
vn -0.000093 -1.000000 -0.000014
vn -0.000106 -1.000000 -0.000000
vn -0.000112 -1.000000 0.000004
vn -0.122202 -0.147480 -0.981487
vn -0.153178 -0.184862 -0.970753
vn -0.155170 -0.093631 -0.983441
vn -0.135989 -0.164118 -0.977022
vn -0.137376 -0.082894 -0.987044
vn -0.118415 -0.285792 -0.950947
vn -0.100576 -0.182064 -0.978129
vn -0.109699 -0.198577 -0.973927
vn -0.101509 -0.122506 -0.987263
vn -0.155845 0.000016 -0.987782
vn -0.137842 0.000014 -0.990454
vn -0.123204 -0.074342 -0.989593
vn -0.123538 0.000013 -0.992340
vn -0.145899 -0.352127 -0.924511
vn -0.120582 -0.218279 -0.968408
vn -0.133765 -0.242143 -0.960975
vn -0.122202 -0.147479 -0.981487
vn -0.111660 -0.067377 -0.991460
vn -0.111660 -0.067376 -0.991460
vn -0.102267 0.000011 -0.994757
vn 0.000105 1.000000 0.000000
vn 0.000104 1.000000 0.000000
vn 0.000107 1.000000 -0.000002
vn -1.000000 0.000105 0.000000
vn -0.923920 -0.382586 -0.000000
vn -0.923920 -0.382587 -0.000001
vn -0.923919 -0.382587 0.000000
vn -0.707180 -0.707034 0.000000
vn -0.707181 -0.707033 0.000005
vn -0.707180 -0.707033 0.000004
vn -0.707178 -0.707035 0.000000
vn -0.382780 -0.923840 -0.000000
vn -0.382781 -0.923839 0.000004
vn -0.382782 -0.923839 0.000000
vn -0.000000 -0.000000 1.000000
usemtl None_MM_ARMYCAMO.bmp
s off
f 50/16/70 51/17/70 52/18/70
f 52/19/70 51/17/70 53/20/70
f 52/19/70 53/17/70 54/21/70
f 51/19/71 50/17/71 55/22/71
f 55/19/71 50/17/71 56/23/71
f 55/19/72 56/17/72 57/24/72
f 57/19/72 56/17/72 58/24/72
f 59/19/73 57/17/73 60/24/73
f 60/19/73 57/17/73 58/24/73
f 61/19/73 62/17/73 58/24/73
f 58/19/73 62/17/73 63/24/73
f 63/19/73 64/17/73 58/24/73
f 58/19/73 64/17/73 65/24/73
f 58/19/73 65/17/73 66/24/73
f 66/19/73 67/17/73 58/24/73
f 58/19/73 67/17/73 68/24/73
f 58/19/73 68/17/73 60/24/73
f 59/19/74 60/17/74 69/24/74
f 69/19/74 60/17/74 70/24/74
f 71/19/75 72/17/75 73/24/75
f 67/19/76 71/17/76 68/24/76
f 68/19/77 71/17/77 73/24/77
f 68/19/78 73/17/78 60/24/78
f 60/19/79 73/17/79 70/24/79
f 74/19/80 75/17/80 76/24/80
f 77/19/81 78/17/81 79/24/81
f 79/19/82 78/17/82 80/24/82
f 79/19/82 80/17/82 74/24/82
f 72/19/83 71/17/83 81/24/83
f 81/19/84 71/17/84 82/24/84
f 81/19/85 82/17/85 76/24/85
f 67/19/86 66/17/86 77/24/86
f 77/19/86 66/17/86 65/24/86
f 77/19/87 65/17/87 78/24/87
f 74/19/88 76/17/88 79/24/88
f 79/19/89 76/17/89 82/24/89
f 79/19/84 82/17/84 77/24/84
f 77/19/84 82/17/84 71/24/84
f 77/19/90 71/17/90 67/24/90
f 54/19/91 83/17/91 52/18/91
f 52/19/91 83/17/91 84/24/91
f 84/19/92 85/17/92 52/18/92
f 52/19/93 85/17/93 86/24/93
f 52/19/94 86/17/94 87/24/94
f 56/19/95 50/17/95 58/24/95
f 58/19/96 50/17/96 52/18/96
f 58/19/97 52/17/97 61/24/97
f 61/19/94 52/17/94 87/24/94
f 88/19/98 89/17/98 90/24/98
f 91/19/99 86/17/99 85/24/99
f 87/19/100 86/17/100 92/24/100
f 92/19/101 86/17/101 91/24/101
f 92/19/102 91/17/102 93/24/102
f 94/19/103 75/17/103 90/24/103
f 90/19/104 75/17/104 74/24/104
f 90/19/105 74/17/105 88/24/105
f 88/19/106 74/17/106 80/24/106
f 88/19/106 80/17/106 78/24/106
f 61/19/107 87/17/107 62/24/107
f 62/19/102 87/17/102 92/24/102
f 62/19/108 92/17/108 63/24/108
f 63/19/109 92/17/109 93/24/109
f 63/19/110 93/17/110 64/24/110
f 84/19/111 94/17/111 85/24/111
f 85/19/112 94/17/112 90/24/112
f 85/19/113 90/17/113 91/24/113
f 91/19/98 90/17/98 89/24/98
f 91/19/114 89/17/114 93/24/114
f 93/19/114 89/17/114 88/24/114
f 93/19/115 88/17/115 64/24/115
f 64/19/116 88/17/116 78/24/116
f 64/19/117 78/17/117 65/24/117
f 69/19/118 95/17/118 59/24/118
f 59/19/118 95/17/118 53/20/118
f 59/19/119 53/17/119 57/24/119
f 57/19/118 53/17/118 51/24/118
f 57/19/120 51/17/120 55/22/120
f 96/19/121 95/17/121 70/24/121
f 70/19/121 95/17/121 69/24/121
f 72/19/122 97/17/122 73/24/122
f 73/19/123 97/17/123 96/25/123
f 73/19/124 96/17/124 70/24/124
f 98/19/125 97/17/125 72/24/125
f 72/19/126 81/17/126 98/26/126
f 98/19/127 81/17/127 76/24/127
f 98/19/128 76/17/128 75/27/128
f 84/19/129 83/17/129 94/28/129
f 94/19/130 83/17/130 98/26/130
f 94/19/131 98/17/131 75/27/131
f 53/19/132 95/17/132 54/21/132
f 54/19/132 95/17/132 96/25/132
f 54/19/132 96/17/132 83/29/132
f 83/19/132 96/17/132 97/30/132
f 83/19/132 97/17/132 98/26/132
o Fuselage
v -5.771112 -0.332749 -0.105627
v -5.826598 -0.332748 -0.215983
v -4.725119 -0.332780 -0.105627
v -4.470574 -0.332787 -0.215983
v -4.725119 -0.332780 0.041554
v -4.470574 -0.332787 0.106773
v -5.771112 -0.332749 0.041554
v -5.826581 0.213985 -0.215983
v -5.771096 0.213984 -0.105627
v -4.470558 0.213946 -0.215983
v -4.725103 0.213953 -0.105627
v -4.470558 0.213946 0.106773
v -4.725103 0.213953 0.041554
v -5.771096 0.213984 0.041554
v 3.071218 -0.430126 0.285539
v 3.074503 -0.441160 0.278919
v 3.071240 0.310844 0.285539
v 3.265337 -0.059647 -0.105627
v 3.074525 0.321877 0.278919
v 3.265337 -0.059647 -0.105627
v 3.071218 -0.447728 -0.290407
v 3.071240 0.328445 -0.290407
v 1.065760 -0.430068 -0.681338
v 1.065781 0.310902 -0.681338
v 1.820467 -0.675288 -0.534219
v 1.820503 0.556079 -0.534219
v -0.762547 0.310956 -0.681338
v -0.762569 -0.430014 -0.681338
v -1.517697 0.595827 -0.510429
v -1.517735 -0.714841 -0.510429
v -2.489857 0.470102 -0.290407
v -2.489888 -0.589059 -0.290407
v -4.470564 0.015881 -0.215983
v -4.470569 -0.134722 -0.215983
v -5.802862 0.015920 -1.119937
v -5.802866 -0.134684 -1.119937
v -6.281082 0.015934 -1.119937
v -6.281086 -0.134670 -1.119937
v -5.826591 -0.134683 -0.215983
v -5.826587 0.015921 -0.215983
v -5.771148 -1.565419 -0.105627
v -5.771148 -1.565419 0.041554
v -5.771060 1.446654 -0.105627
v -5.771060 1.446654 0.041554
v -2.472648 0.441964 0.206964
v -2.472647 0.472328 0.206964
v -2.472678 -0.591286 0.206964
v -2.472677 -0.560923 0.206964
v -0.905801 -0.430010 0.285539
v -0.905779 0.310960 0.285539
v 1.065792 0.693436 -0.451818
v -0.762536 0.693489 -0.451818
v 1.065792 0.693436 0.056019
v -0.762536 0.693489 0.056019
v 1.065748 -0.812601 -0.451818
v 1.065748 -0.812601 0.056019
v -0.762580 -0.812547 -0.451818
v -0.762580 -0.812547 0.056019
v 3.071218 -0.447728 0.274978
v 3.265337 -0.059647 -0.105627
v -2.472678 -0.591286 0.188746
v -2.472647 0.472328 0.188746
v 3.071240 0.328445 0.274978
v -5.298788 1.446640 0.041554
v -5.298788 1.446640 -0.105627
v -5.298876 -1.565433 0.041554
v -5.298876 -1.565433 -0.105627
vt 0.037381 0.050618
vt 0.451804 0.346665
vt 0.475205 0.731595
vt 0.471683 0.930353
vt 0.427021 0.750960
vt 0.421405 0.924585
vt 0.434233 0.566293
vt 0.402226 0.354404
vt 0.364305 0.480084
vt 0.255512 0.928523
vt 0.292015 0.771490
vt 0.306483 0.945251
vt 0.333937 0.774815
vt 0.365856 0.563416
vt 0.166071 0.532633
vt 0.098117 0.556854
vt 0.251099 0.542519
vt 0.166885 0.460390
vt 0.302991 0.558452
vt 0.185353 0.975382
vt 0.062090 0.678410
vt 0.315608 0.692438
vt 0.150987 0.167731
vt 0.230626 0.172203
vt 0.095124 0.317483
vt 0.277879 0.320057
vt 0.106714 0.844712
vt 0.404806 0.830121
vt 0.188662 0.503181
vt 0.343702 0.517355
vt 0.263397 0.012068
vt 0.301564 0.015790
vt 0.284820 0.945456
vt 0.438276 0.937495
vt 0.486250 0.058711
vt 0.067996 0.961457
vt 0.281737 0.081456
vt 0.018929 0.053390
vt 0.400957 0.202979
vt 0.493135 0.218138
vt 0.407147 0.596886
vt 0.421570 0.602774
vt 0.405112 0.568930
vt 0.374247 0.571437
vt 0.016313 0.028670
vt 0.105295 0.009302
vt 0.450983 0.061862
vt 0.213938 0.036383
vt 0.435163 0.733034
vt 0.056128 0.726213
vt 0.265884 0.165863
vt 0.144230 0.841440
vt 0.302916 0.149240
vt 0.167966 0.851466
vt 0.115508 0.160331
vt 0.080778 0.141964
vt 0.367200 0.824457
vt 0.340423 0.821629
vt 0.032091 0.581584
vt 0.032673 0.660896
vt 0.288560 0.018138
vt 0.343391 0.391862
vt 0.412932 0.638080
vt 0.340763 0.582190
vt 0.370195 0.606663
vt 0.381025 0.608673
vt 0.440331 0.615427
vt 0.400596 0.611557
vn -0.000029 -1.000000 0.000000
vn 0.000029 1.000000 -0.000000
vn 0.895765 -0.000026 0.444529
vn 0.895774 -0.000026 0.444509
vn 0.895774 -0.000027 0.444510
vn 0.689490 -0.000020 -0.724295
vn 0.191332 -0.000006 -0.981525
vn -0.220740 0.000006 -0.975333
vn -0.037549 0.000001 -0.999295
vn 0.561457 -0.000016 -0.827506
vn 0.561457 -0.000018 -0.827506
vn -0.893428 0.000028 0.449206
vn -0.893428 0.000026 0.449206
vn -0.893430 0.000028 0.449203
vn -0.893430 0.000025 0.449203
vn -0.893428 0.000025 0.449207
vn -0.893429 0.000026 0.449204
vn -1.000000 0.000029 0.000000
vn -1.000000 0.000030 0.000000
vn -0.050085 0.000002 0.998745
vn -0.050085 0.000001 0.998745
vn 0.179001 -0.983849 0.000000
vn 0.894355 -0.447359 0.000000
vn 0.894347 -0.447374 -0.000020
vn -0.128316 -0.991733 0.000000
vn -0.128258 0.991741 0.000000
vn 0.894381 0.447307 0.000000
vn 0.894383 0.447303 0.000000
vn 0.179058 0.983838 0.000000
vn 0.179058 0.983839 -0.000000
vn 0.906625 0.421937 0.000000
vn 0.906600 -0.421991 0.000000
vn 0.000015 0.514496 -0.857493
vn 0.000015 0.514495 0.857493
vn 0.000015 0.514496 0.857493
vn 0.000014 0.514492 0.857495
vn 0.000035 0.514492 0.857495
vn 1.000000 -0.000031 0.000000
vn -0.000015 -0.514495 0.857494
vn -0.000013 -0.514505 0.857487
vn -0.000015 -0.514496 0.857493
vn -0.000016 -0.514492 0.857495
vn 1.000000 -0.000024 0.000000
vn -0.000015 -0.514496 -0.857493
usemtl None_MM_ARMYCAMO.bmp
s off
f 99/31/133 100/32/133 101/33/133
f 101/33/133 100/32/133 102/34/133
f 101/33/133 102/34/133 103/35/133
f 103/35/133 102/34/133 104/36/133
f 103/35/133 104/36/133 105/37/133
f 106/38/134 107/39/134 108/40/134
f 108/40/134 107/39/134 109/41/134
f 108/40/134 109/41/134 110/42/134
f 110/42/134 109/41/134 111/43/134
f 110/42/134 111/43/134 112/44/134
f 113/45/135 114/46/135 115/47/135
f 115/47/136 114/46/136 116/48/136
f 115/47/137 116/48/137 117/49/137
f 118/50/138 119/51/138 120/52/138
f 121/53/139 122/54/139 123/55/139
f 123/55/139 122/54/139 124/56/139
f 123/55/139 124/56/139 119/51/139
f 119/51/139 124/56/139 120/52/139
f 125/57/140 126/58/140 127/59/140
f 127/59/140 126/58/140 128/60/140
f 127/59/140 128/60/140 129/61/140
f 129/61/140 128/60/140 130/62/140
f 108/40/141 129/61/141 131/63/141
f 131/63/141 129/61/141 130/62/141
f 131/63/141 130/62/141 132/64/141
f 132/64/141 130/62/141 102/34/141
f 133/65/142 131/63/142 134/66/142
f 134/66/143 131/63/143 132/64/143
f 135/67/73 133/65/73 136/68/73
f 136/68/73 133/65/73 134/66/73
f 99/31/144 137/69/144 100/32/144
f 107/39/145 106/38/145 138/70/145
f 135/67/146 136/68/146 138/70/146
f 138/70/147 136/68/147 137/69/147
f 138/70/148 137/69/148 107/39/148
f 99/31/149 107/39/149 137/69/149
f 99/31/150 139/71/150 140/72/150
f 99/31/150 140/72/150 105/37/150
f 99/31/151 105/37/151 107/39/151
f 107/39/151 105/37/151 112/44/151
f 107/39/150 112/44/150 141/73/150
f 141/73/150 112/44/150 142/74/150
f 143/75/152 144/76/152 110/42/152
f 104/36/153 145/77/153 146/78/153
f 110/42/153 112/44/153 105/37/153
f 105/37/153 104/36/153 110/42/153
f 110/42/153 104/36/153 146/78/153
f 110/42/153 146/78/153 143/75/153
f 143/75/153 146/78/153 147/79/153
f 143/75/153 147/79/153 148/80/153
f 115/47/132 148/80/132 113/45/132
f 113/45/132 148/80/132 147/79/132
f 149/81/134 150/82/134 151/83/134
f 151/83/134 150/82/134 152/84/134
f 153/85/133 154/86/133 155/87/133
f 155/87/133 154/86/133 156/88/133
f 125/57/73 122/54/73 126/58/73
f 126/58/73 122/54/73 121/53/73
f 119/51/154 157/89/154 123/55/154
f 123/55/154 157/89/154 154/86/154
f 123/55/154 154/86/154 153/85/154
f 119/51/155 158/90/155 157/89/155
f 157/89/156 158/90/156 114/46/156
f 145/77/157 104/36/157 159/91/157
f 159/91/157 104/36/157 102/34/157
f 155/87/157 156/88/157 128/60/157
f 128/60/157 156/88/157 159/91/157
f 128/60/157 159/91/157 130/62/157
f 130/62/157 159/91/157 102/34/157
f 110/42/158 144/76/158 108/40/158
f 108/40/158 144/76/158 160/92/158
f 108/40/158 160/92/158 129/61/158
f 129/61/158 160/92/158 127/59/158
f 127/59/158 160/92/158 152/84/158
f 127/59/158 152/84/158 150/82/158
f 158/93/159 120/52/159 117/49/159
f 117/49/160 120/52/160 161/94/160
f 149/81/161 151/83/161 124/56/161
f 124/56/162 151/83/162 161/94/162
f 124/56/161 161/94/161 120/52/161
f 142/74/134 162/95/134 141/73/134
f 141/73/134 162/95/134 163/96/134
f 162/95/132 142/74/132 111/43/132
f 111/43/132 142/74/132 112/44/132
f 107/39/73 141/73/73 109/41/73
f 109/41/73 141/73/73 163/96/73
f 109/41/163 163/96/163 111/43/163
f 111/43/163 163/96/163 162/95/163
f 140/72/132 164/97/132 105/37/132
f 105/37/132 164/97/132 103/35/132
f 99/31/73 101/33/73 165/98/73
f 99/31/73 165/98/73 139/71/73
f 164/97/133 140/72/133 165/98/133
f 165/98/133 140/72/133 139/71/133
f 103/35/164 164/97/164 101/33/164
f 101/33/164 164/97/164 165/98/164
f 135/67/134 138/70/134 133/65/134
f 133/65/134 138/70/134 131/63/134
f 131/63/73 138/70/73 108/40/73
f 108/40/73 138/70/73 106/38/73
f 137/69/133 136/68/133 132/64/133
f 132/64/133 136/68/133 134/66/133
f 102/34/73 100/32/73 132/64/73
f 132/64/73 100/32/73 137/69/73
f 124/56/165 122/54/165 149/81/165
f 149/81/165 122/54/165 125/57/165
f 149/81/165 125/57/165 150/82/165
f 150/82/165 125/57/165 127/59/165
f 160/92/166 143/75/166 152/84/166
f 152/84/167 143/75/167 148/80/167
f 152/84/167 148/80/167 151/83/167
f 151/83/167 148/80/167 115/47/167
f 151/83/168 115/47/168 161/94/168
f 161/94/169 115/47/169 117/49/169
f 143/75/170 160/92/170 144/76/170
f 147/79/171 146/78/171 159/91/171
f 154/86/172 157/89/172 114/46/172
f 159/91/173 156/88/173 147/79/173
f 147/79/173 156/88/173 154/86/173
f 147/79/173 154/86/173 113/45/173
f 113/45/174 154/86/174 114/46/174
f 145/77/175 159/91/175 146/78/175
f 128/60/176 126/58/176 155/87/176
f 155/87/176 126/58/176 121/53/176
f 155/87/176 121/53/176 153/85/176
f 153/85/176 121/53/176 123/55/176
